<svg xmlns="http://www.w3.org/2000/svg" viewBox="0 0 24 24" width="40" height="40">
  <circle cx="12" cy="12" r="12" fill="#000000"></circle>
  <path fill="#ffffff" d="M12 .5C5.73.5.75 5.48.75 11.75c0 4.84 3.14 8.94 7.5 10.39.55.1.75-.24.75-.53v-1.86c-3.05.66-3.7-1.47-3.7-1.47-.5-1.26-1.23-1.6-1.23-1.6-1.01-.69.08-.68.08-.68 1.12.08 1.7 1.15 1.7 1.15 1 .1 1.95.71 2.43 1.11.1-.72.39-1.2.71-1.47-2.43-.28-4.99-1.22-4.99-5.44 0-1.2.43-2.18 1.14-2.95-.12-.28-.5-1.4.1-2.9 0 0 .93-.3 3.05 1.13a10.6 10.6 0 0 1 5.56 0c2.12-1.43 3.05-1.13 3.05-1.13.6 1.5.22 2.62.1 2.9.71.77 1.14 1.75 1.14 2.95 0 4.23-2.56 5.15-5 5.43.4.34.75 1.02.75 2.06v3.05c0 .3.2.64.75.53 4.36-1.45 7.5-5.55 7.5-10.39C23.25 5.48 18.27.5 12 .5z"></path>
</svg>
